<svg id="visual" viewBox="0 0 900 600" width="900" height="600" xmlns="http://www.w3.org/2000/svg" xmlns:xlink="http://www.w3.org/1999/xlink" version="1.1"><g stroke-width="1" stroke-linejoin="bevel"><path d="M481 280L474 199L368 296Z" fill="#00101c" stroke="#00101c"></path><path d="M474 199L430 163L368 296Z" fill="#277297" stroke="#277297"></path><path d="M430 163L327 278L368 296Z" fill="#0c2435" stroke="#0c2435"></path><path d="M430 163L276 167L327 278Z" fill="#081a28" stroke="#081a28"></path><path d="M511 88L387 67L430 163Z" fill="#297ea6" stroke="#297ea6"></path><path d="M430 163L387 67L276 167Z" fill="#19435d" stroke="#19435d"></path><path d="M566 130L511 88L474 199Z" fill="#15384f" stroke="#15384f"></path><path d="M474 199L511 88L430 163Z" fill="#112e42" stroke="#112e42"></path><path d="M398 434L486 417L368 296Z" fill="#081a28" stroke="#081a28"></path><path d="M368 296L486 417L481 280Z" fill="#112e42" stroke="#112e42"></path><path d="M636 221L566 130L474 199Z" fill="#297ea6" stroke="#297ea6"></path><path d="M636 221L474 199L481 280Z" fill="#112e42" stroke="#112e42"></path><path d="M200 278L333 411L327 278Z" fill="#081a28" stroke="#081a28"></path><path d="M327 278L333 411L368 296Z" fill="#19435d" stroke="#19435d"></path><path d="M333 411L398 434L368 296Z" fill="#19435d" stroke="#19435d"></path><path d="M486 417L596 317L481 280Z" fill="#0c2435" stroke="#0c2435"></path><path d="M220 137L228 207L276 167Z" fill="#00101c" stroke="#00101c"></path><path d="M276 167L228 207L327 278Z" fill="#081a28" stroke="#081a28"></path><path d="M387 67L273 92L276 167Z" fill="#277297" stroke="#277297"></path><path d="M596 317L636 221L481 280Z" fill="#277297" stroke="#277297"></path><path d="M135 183L200 278L228 207Z" fill="#1d4e6b" stroke="#1d4e6b"></path><path d="M228 207L200 278L327 278Z" fill="#00101c" stroke="#00101c"></path><path d="M273 92L220 137L276 167Z" fill="#205a7a" stroke="#205a7a"></path><path d="M280 514L381 472L333 411Z" fill="#0c2435" stroke="#0c2435"></path><path d="M333 411L381 472L398 434Z" fill="#246688" stroke="#246688"></path><path d="M398 434L463 494L486 417Z" fill="#1d4e6b" stroke="#1d4e6b"></path><path d="M473 0L431 0L511 88Z" fill="#277297" stroke="#277297"></path><path d="M511 88L431 0L387 67Z" fill="#0c2435" stroke="#0c2435"></path><path d="M387 67L328 0L273 92Z" fill="#112e42" stroke="#112e42"></path><path d="M596 317L664 264L636 221Z" fill="#15384f" stroke="#15384f"></path><path d="M670 413L664 264L596 317Z" fill="#1d4e6b" stroke="#1d4e6b"></path><path d="M623 0L473 0L511 88Z" fill="#15384f" stroke="#15384f"></path><path d="M623 0L511 88L566 130Z" fill="#15384f" stroke="#15384f"></path><path d="M381 472L463 494L398 434Z" fill="#246688" stroke="#246688"></path><path d="M486 417L629 427L596 317Z" fill="#0c2435" stroke="#0c2435"></path><path d="M431 0L328 0L387 67Z" fill="#246688" stroke="#246688"></path><path d="M161 0L114 75L220 137Z" fill="#1d4e6b" stroke="#1d4e6b"></path><path d="M593 515L629 427L486 417Z" fill="#00101c" stroke="#00101c"></path><path d="M664 264L697 204L636 221Z" fill="#246688" stroke="#246688"></path><path d="M636 221L697 204L566 130Z" fill="#0c2435" stroke="#0c2435"></path><path d="M789 228L697 204L664 264Z" fill="#19435d" stroke="#19435d"></path><path d="M127 339L174 387L200 278Z" fill="#00101c" stroke="#00101c"></path><path d="M200 278L174 387L333 411Z" fill="#297ea6" stroke="#297ea6"></path><path d="M114 75L135 183L220 137Z" fill="#19435d" stroke="#19435d"></path><path d="M220 137L135 183L228 207Z" fill="#0c2435" stroke="#0c2435"></path><path d="M677 489L670 413L629 427Z" fill="#00101c" stroke="#00101c"></path><path d="M629 427L670 413L596 317Z" fill="#277297" stroke="#277297"></path><path d="M207 505L280 514L333 411Z" fill="#081a28" stroke="#081a28"></path><path d="M381 472L419 600L463 494Z" fill="#112e42" stroke="#112e42"></path><path d="M135 183L127 339L200 278Z" fill="#00101c" stroke="#00101c"></path><path d="M174 387L207 505L333 411Z" fill="#00101c" stroke="#00101c"></path><path d="M699 71L623 0L566 130Z" fill="#277297" stroke="#277297"></path><path d="M463 494L593 515L486 417Z" fill="#205a7a" stroke="#205a7a"></path><path d="M486 600L593 515L463 494Z" fill="#19435d" stroke="#19435d"></path><path d="M697 204L699 71L566 130Z" fill="#1d4e6b" stroke="#1d4e6b"></path><path d="M118 472L207 505L174 387Z" fill="#1d4e6b" stroke="#1d4e6b"></path><path d="M161 0L220 137L273 92Z" fill="#0c2435" stroke="#0c2435"></path><path d="M0 268L81 372L127 339Z" fill="#19435d" stroke="#19435d"></path><path d="M328 0L161 0L273 92Z" fill="#246688" stroke="#246688"></path><path d="M321 600L381 472L280 514Z" fill="#246688" stroke="#246688"></path><path d="M321 600L419 600L381 472Z" fill="#246688" stroke="#246688"></path><path d="M632 600L677 489L593 515Z" fill="#246688" stroke="#246688"></path><path d="M593 515L677 489L629 427Z" fill="#081a28" stroke="#081a28"></path><path d="M831 266L789 228L664 264Z" fill="#00101c" stroke="#00101c"></path><path d="M0 268L127 339L135 183Z" fill="#19435d" stroke="#19435d"></path><path d="M127 339L81 372L174 387Z" fill="#1d4e6b" stroke="#1d4e6b"></path><path d="M419 600L486 600L463 494Z" fill="#15384f" stroke="#15384f"></path><path d="M231 600L321 600L280 514Z" fill="#297ea6" stroke="#297ea6"></path><path d="M831 266L664 264L815 420Z" fill="#0c2435" stroke="#0c2435"></path><path d="M697 204L774 76L699 71Z" fill="#297ea6" stroke="#297ea6"></path><path d="M774 76L698 0L699 71Z" fill="#297ea6" stroke="#297ea6"></path><path d="M699 71L698 0L623 0Z" fill="#1d4e6b" stroke="#1d4e6b"></path><path d="M81 372L118 472L174 387Z" fill="#0c2435" stroke="#0c2435"></path><path d="M207 505L231 600L280 514Z" fill="#205a7a" stroke="#205a7a"></path><path d="M161 0L130 0L114 75Z" fill="#081a28" stroke="#081a28"></path><path d="M789 228L774 76L697 204Z" fill="#246688" stroke="#246688"></path><path d="M67 600L231 600L207 505Z" fill="#00101c" stroke="#00101c"></path><path d="M815 420L664 264L670 413Z" fill="#0c2435" stroke="#0c2435"></path><path d="M789 228L900 198L774 76Z" fill="#277297" stroke="#277297"></path><path d="M486 600L632 600L593 515Z" fill="#00101c" stroke="#00101c"></path><path d="M791 473L815 420L670 413Z" fill="#00101c" stroke="#00101c"></path><path d="M81 372L0 474L118 472Z" fill="#246688" stroke="#246688"></path><path d="M0 172L0 268L135 183Z" fill="#15384f" stroke="#15384f"></path><path d="M0 172L135 183L114 75Z" fill="#19435d" stroke="#19435d"></path><path d="M0 63L0 172L114 75Z" fill="#246688" stroke="#246688"></path><path d="M791 473L670 413L677 489Z" fill="#081a28" stroke="#081a28"></path><path d="M777 600L791 473L677 489Z" fill="#297ea6" stroke="#297ea6"></path><path d="M0 268L0 393L81 372Z" fill="#277297" stroke="#277297"></path><path d="M118 472L67 600L207 505Z" fill="#00101c" stroke="#00101c"></path><path d="M900 60L789 0L774 76Z" fill="#297ea6" stroke="#297ea6"></path><path d="M774 76L789 0L698 0Z" fill="#15384f" stroke="#15384f"></path><path d="M632 600L703 600L677 489Z" fill="#0c2435" stroke="#0c2435"></path><path d="M0 0L0 63L114 75Z" fill="#00101c" stroke="#00101c"></path><path d="M0 393L0 474L81 372Z" fill="#297ea6" stroke="#297ea6"></path><path d="M900 332L900 198L831 266Z" fill="#297ea6" stroke="#297ea6"></path><path d="M831 266L900 198L789 228Z" fill="#112e42" stroke="#112e42"></path><path d="M130 0L0 0L114 75Z" fill="#1d4e6b" stroke="#1d4e6b"></path><path d="M815 420L900 332L831 266Z" fill="#15384f" stroke="#15384f"></path><path d="M900 420L900 332L815 420Z" fill="#0c2435" stroke="#0c2435"></path><path d="M900 420L815 420L900 476Z" fill="#297ea6" stroke="#297ea6"></path><path d="M0 474L67 600L118 472Z" fill="#081a28" stroke="#081a28"></path><path d="M703 600L777 600L677 489Z" fill="#297ea6" stroke="#297ea6"></path><path d="M900 476L815 420L791 473Z" fill="#19435d" stroke="#19435d"></path><path d="M900 198L900 60L774 76Z" fill="#00101c" stroke="#00101c"></path><path d="M900 600L900 476L791 473Z" fill="#277297" stroke="#277297"></path><path d="M900 60L900 0L789 0Z" fill="#205a7a" stroke="#205a7a"></path><path d="M0 474L0 600L67 600Z" fill="#1d4e6b" stroke="#1d4e6b"></path><path d="M777 600L900 600L791 473Z" fill="#00101c" stroke="#00101c"></path></g></svg>